<?xml version="1.0" encoding="UTF-8" standalone="no"?>
<svg
   xmlns:dc="http://purl.org/dc/elements/1.1/"
   xmlns:cc="http://creativecommons.org/ns#"
   xmlns:rdf="http://www.w3.org/1999/02/22-rdf-syntax-ns#"
   xmlns:svg="http://www.w3.org/2000/svg"
   xmlns="http://www.w3.org/2000/svg"
   xmlns:sodipodi="http://sodipodi.sourceforge.net/DTD/sodipodi-0.dtd"
   xmlns:inkscape="http://www.inkscape.org/namespaces/inkscape"
   version="1.1"
   x="0px"
   y="0px"
   viewBox="0 0 128 128"
   xml:space="preserve"
   id="svg16"
   sodipodi:docname="logo.svg"
   width="128"
   height="128"
   inkscape:version="0.92.4 (5da689c313, 2019-01-14)"><metadata
     id="metadata22"><rdf:RDF><cc:Work
         rdf:about=""><dc:format>image/svg+xml</dc:format><dc:type
           rdf:resource="http://purl.org/dc/dcmitype/StillImage" /><dc:title></dc:title></cc:Work></rdf:RDF></metadata><defs
     id="defs20" /><sodipodi:namedview
     pagecolor="#ffffff"
     bordercolor="#666666"
     borderopacity="1"
     objecttolerance="10"
     gridtolerance="10"
     guidetolerance="10"
     inkscape:pageopacity="0"
     inkscape:pageshadow="2"
     inkscape:window-width="1920"
     inkscape:window-height="1016"
     id="namedview18"
     showgrid="false"
     inkscape:zoom="2.085965"
     inkscape:cx="1.4130048"
     inkscape:cy="69.000578"
     inkscape:window-x="2560"
     inkscape:window-y="387"
     inkscape:window-maximized="1"
     inkscape:current-layer="g10" /><g
     id="g10"
     transform="translate(0,96)"><path
       d="m 115.57198,-51.184236 -7.38,1.116 -4.62,14.144 V 0.42776478 H 19.571984 V -47.572236 h 19.719999 l 3.92,-11.999999 H 15.867984 c -4.58,0 -8.2959998,3.716 -8.2959998,8.295999 V 8.4277648 H 115.57198 Z"
       id="path2"
       inkscape:connector-curvature="0"
       style="fill:#2962ff;fill-opacity:1;stroke-width:4" /><path
       d="m 7.5719842,12.427765 -8.00000098,12 v 3.72 c 0,2.364 1.91599998,4.28 4.28000098,4.28 H 119.29198 c 2.364,0 4.28,-1.916 4.28,-4.28 v -3.72 l -8,-12 z m 7.9999998,4 h 91.999996 l 2.564,4 H 13.507984 Z"
       id="path4"
       inkscape:connector-curvature="0"
       style="fill:#2962ff;fill-opacity:1;stroke-width:4" /><path
       d="m 83.843983,-38.076236 c 0.536,-1.628 1.696,-2.984 3.228,-3.76 0.508,-0.256 1.044,-0.428 1.588,-0.544 l 1.1,-3.368 0.528,-1.608 -1.628,0.248 c -1.588,0.244 -3.212,0.364 -4.82,0.364 -8.496,0 -16.512,-3.28 -22.576,-9.239999 l -11.972,-11.776 -7.444,22.771999 c -1.108,3.396 10.384,10.204 25.672,15.2 3.552,1.16 6.996,2.12 10.208,2.872 0.392,1.416 1.38,2.756 2.828,3.908 1.188,0.94 2.66,1.756 4.416,2.332 1.524,0.5 3.092,0.76 4.536,0.76 2.508,0 4.516,-0.8 5.724,-2.192 0.432,-0.5 0.948,-1.064 1.16,-1.708 l 3.18,-9.232 c 0,-0.004 0,-0.008 0,-0.008 l 5.211997,-16.468 -7.247997,1.084 -1.584,4.716 -1.124,3.368 c 1.484,1.664 2.084,4.036 1.336,6.308 l -3.024,9.232 c -0.352,1.084 -1.772,1.664 -3.632,1.664 -1.072,0 -2.288,-0.192 -3.532,-0.596 -3.4,-1.112 -5.704,-3.392 -5.148,-5.088 z"
       id="path6"
       inkscape:connector-curvature="0"
       style="fill:#313131;fill-opacity:1;stroke-width:4" /><path
       d="m 126.71198,-60.840235 -26.496,-26.316 c -5.463997,-5.428 -12.819997,-8.416 -20.407997,-8.416 -1.392,0 -2.788,0.1 -4.184,0.304 l -37.452,5.48 c -1.092,0.16 -2,0.924 -2.344,1.976 -0.34,1.048 -0.06,2.204 0.728,2.98 l 26.98,26.54 c 5.456,5.368 12.768,8.311999 20.304,8.311999 1.44,0 2.892,-0.108 4.336,-0.328 l 3.24,-0.488 0.068,-0.208 -9.512,-15.155999 c -0.784,-0.116 -1.58,-0.276 -2.384,-0.54 -5.096,-1.668 -8.328,-5.768 -7.22,-9.168 1.112,-3.4 6.14,-4.804 11.24,-3.136 5.1,1.668 8.328,5.768 7.216,9.168 -0.332,1.016 -1.044,1.828 -1.972,2.456 l 9.724,15.496 26.527997,-4.016 c 1.084,-0.168 1.988,-0.928 2.328,-1.972 0.336,-1.048 0.06,-2.196 -0.72,-2.968 z"
       id="path8"
       inkscape:connector-curvature="0"
       style="fill:#313131;fill-opacity:1;stroke-width:4" /></g></svg>